<?xml version="1.0" encoding="utf-8"?>
<!-- Generator: Adobe Illustrator 22.0.0, SVG Export Plug-In . SVG Version: 6.00 Build 0)  -->
<svg version="1.1" id="Capa_1" xmlns="http://www.w3.org/2000/svg" xmlns:xlink="http://www.w3.org/1999/xlink" x="0px" y="0px"
	 viewBox="0 0 82.3 90" style="enable-background:new 0 0 82.3 90;" xml:space="preserve">
<style type="text/css">
	.st0{fill:#5B5B5F;}
</style>
<path class="st0" d="M0.1,22.5V11.3c0-1,0.4-1.9,1.1-2.7c0.7-0.7,1.6-1.1,2.7-1.1h11.2V0.1h7.5v7.5h37.4V0.1h7.5v7.5h11.2
	c1,0,1.9,0.4,2.6,1.1c0.7,0.7,1.1,1.6,1.1,2.7v11.2H0.1z M82.4,30v56.1c0,1-0.4,1.9-1.1,2.6c-0.7,0.8-1.6,1.1-2.6,1.1H3.8
	c-1.1,0-1.9-0.4-2.7-1.1c-0.7-0.7-1.1-1.6-1.1-2.6V30H82.4z M7.6,52.5h7.5V45H7.6V52.5z M7.6,67.4h7.5v-7.5H7.6V67.4z M7.6,82.4h7.5
	v-7.5H7.6V82.4z M22.5,52.5H30V45h-7.5V52.5z M22.5,67.4H30v-7.5h-7.5V67.4z M22.5,82.4H30v-7.5h-7.5V82.4z M37.5,52.5H45V45h-7.5
	V52.5z M37.5,67.4H45v-7.5h-7.5V67.4z M37.5,82.4H45v-7.5h-7.5V82.4z M52.5,52.5h7.5V45h-7.5V52.5z M52.5,67.4h7.5v-7.5h-7.5V67.4z
	 M52.5,82.4h7.5v-7.5h-7.5V82.4z M67.4,52.5h7.5V45h-7.5V52.5z M67.4,67.4h7.5v-7.5h-7.5V67.4z M67.4,82.4h7.5v-7.5h-7.5V82.4z"/>
</svg>
