<svg class="lds-spinner" width="140px"  height="140px"  xmlns="http://www.w3.org/2000/svg" xmlns:xlink="http://www.w3.org/1999/xlink" viewBox="0 0 100 100" preserveAspectRatio="xMidYMid" style="background: rgba(0, 0, 0, 0) none repeat scroll 0% 0%;"><g transform="rotate(0 50 50)">
  <rect x="48.5" y="20" rx="2.91" ry="1.2" width="3" height="20" fill="#ffffff">
    <animate attributeName="opacity" values="1;0" keyTimes="0;1" dur="1.4s" begin="-1.322222222222222s" repeatCount="indefinite"></animate>
  </rect>
</g><g transform="rotate(20 50 50)">
  <rect x="48.5" y="20" rx="2.91" ry="1.2" width="3" height="20" fill="#ffffff">
    <animate attributeName="opacity" values="1;0" keyTimes="0;1" dur="1.4s" begin="-1.2444444444444445s" repeatCount="indefinite"></animate>
  </rect>
</g><g transform="rotate(40 50 50)">
  <rect x="48.5" y="20" rx="2.91" ry="1.2" width="3" height="20" fill="#ffffff">
    <animate attributeName="opacity" values="1;0" keyTimes="0;1" dur="1.4s" begin="-1.1666666666666667s" repeatCount="indefinite"></animate>
  </rect>
</g><g transform="rotate(60 50 50)">
  <rect x="48.5" y="20" rx="2.91" ry="1.2" width="3" height="20" fill="#ffffff">
    <animate attributeName="opacity" values="1;0" keyTimes="0;1" dur="1.4s" begin="-1.0888888888888888s" repeatCount="indefinite"></animate>
  </rect>
</g><g transform="rotate(80 50 50)">
  <rect x="48.5" y="20" rx="2.91" ry="1.2" width="3" height="20" fill="#ffffff">
    <animate attributeName="opacity" values="1;0" keyTimes="0;1" dur="1.4s" begin="-1.011111111111111s" repeatCount="indefinite"></animate>
  </rect>
</g><g transform="rotate(100 50 50)">
  <rect x="48.5" y="20" rx="2.91" ry="1.2" width="3" height="20" fill="#ffffff">
    <animate attributeName="opacity" values="1;0" keyTimes="0;1" dur="1.4s" begin="-0.9333333333333331s" repeatCount="indefinite"></animate>
  </rect>
</g><g transform="rotate(120 50 50)">
  <rect x="48.5" y="20" rx="2.91" ry="1.2" width="3" height="20" fill="#ffffff">
    <animate attributeName="opacity" values="1;0" keyTimes="0;1" dur="1.4s" begin="-0.8555555555555555s" repeatCount="indefinite"></animate>
  </rect>
</g><g transform="rotate(140 50 50)">
  <rect x="48.5" y="20" rx="2.91" ry="1.2" width="3" height="20" fill="#ffffff">
    <animate attributeName="opacity" values="1;0" keyTimes="0;1" dur="1.4s" begin="-0.7777777777777778s" repeatCount="indefinite"></animate>
  </rect>
</g><g transform="rotate(160 50 50)">
  <rect x="48.5" y="20" rx="2.91" ry="1.2" width="3" height="20" fill="#ffffff">
    <animate attributeName="opacity" values="1;0" keyTimes="0;1" dur="1.4s" begin="-0.7s" repeatCount="indefinite"></animate>
  </rect>
</g><g transform="rotate(180 50 50)">
  <rect x="48.5" y="20" rx="2.91" ry="1.2" width="3" height="20" fill="#ffffff">
    <animate attributeName="opacity" values="1;0" keyTimes="0;1" dur="1.4s" begin="-0.6222222222222222s" repeatCount="indefinite"></animate>
  </rect>
</g><g transform="rotate(200 50 50)">
  <rect x="48.5" y="20" rx="2.91" ry="1.2" width="3" height="20" fill="#ffffff">
    <animate attributeName="opacity" values="1;0" keyTimes="0;1" dur="1.4s" begin="-0.5444444444444444s" repeatCount="indefinite"></animate>
  </rect>
</g><g transform="rotate(220 50 50)">
  <rect x="48.5" y="20" rx="2.91" ry="1.2" width="3" height="20" fill="#ffffff">
    <animate attributeName="opacity" values="1;0" keyTimes="0;1" dur="1.4s" begin="-0.46666666666666656s" repeatCount="indefinite"></animate>
  </rect>
</g><g transform="rotate(240 50 50)">
  <rect x="48.5" y="20" rx="2.91" ry="1.2" width="3" height="20" fill="#ffffff">
    <animate attributeName="opacity" values="1;0" keyTimes="0;1" dur="1.4s" begin="-0.3888888888888889s" repeatCount="indefinite"></animate>
  </rect>
</g><g transform="rotate(260 50 50)">
  <rect x="48.5" y="20" rx="2.91" ry="1.2" width="3" height="20" fill="#ffffff">
    <animate attributeName="opacity" values="1;0" keyTimes="0;1" dur="1.4s" begin="-0.3111111111111111s" repeatCount="indefinite"></animate>
  </rect>
</g><g transform="rotate(280 50 50)">
  <rect x="48.5" y="20" rx="2.91" ry="1.2" width="3" height="20" fill="#ffffff">
    <animate attributeName="opacity" values="1;0" keyTimes="0;1" dur="1.4s" begin="-0.23333333333333328s" repeatCount="indefinite"></animate>
  </rect>
</g><g transform="rotate(300 50 50)">
  <rect x="48.5" y="20" rx="2.91" ry="1.2" width="3" height="20" fill="#ffffff">
    <animate attributeName="opacity" values="1;0" keyTimes="0;1" dur="1.4s" begin="-0.15555555555555556s" repeatCount="indefinite"></animate>
  </rect>
</g><g transform="rotate(320 50 50)">
  <rect x="48.5" y="20" rx="2.91" ry="1.2" width="3" height="20" fill="#ffffff">
    <animate attributeName="opacity" values="1;0" keyTimes="0;1" dur="1.4s" begin="-0.07777777777777778s" repeatCount="indefinite"></animate>
  </rect>
</g><g transform="rotate(340 50 50)">
  <rect x="48.5" y="20" rx="2.91" ry="1.2" width="3" height="20" fill="#ffffff">
    <animate attributeName="opacity" values="1;0" keyTimes="0;1" dur="1.4s" begin="0s" repeatCount="indefinite"></animate>
  </rect>
</g></svg>